<svg xmlns="http://www.w3.org/2000/svg" version="1.1" xmlns:xlink="http://www.w3.org/1999/xlink" xmlns:svgjs="http://svgjs.dev/svgjs" width="128" height="128" viewBox="0 0 128 128"><g transform="matrix(0.8046875,0,0,0.8046875,12.333870967741937,28.126454924271876)"><svg viewBox="0 0 155 108" data-background-color="#2f2e2e" preserveAspectRatio="xMidYMid meet" height="89" width="128" xmlns="http://www.w3.org/2000/svg" xmlns:xlink="http://www.w3.org/1999/xlink"><g id="tight-bounds" transform="matrix(1,0,0,1,0.25,0.09794776119402115)"><svg viewBox="0 0 154.5 107.80410447761194" height="107.80410447761194" width="154.5"><g><svg viewBox="0 0 154.5 107.80410447761194" height="107.80410447761194" width="154.5"><g><svg viewBox="0 0 154.5 107.80410447761194" height="107.80410447761194" width="154.5"><g><svg viewBox="0 0 154.5 107.80410447761194" height="107.80410447761194" width="154.5"><g><svg viewBox="0 0 154.5 107.80410447761194" height="107.80410447761194" width="154.5"><g transform="matrix(1,0,0,1,0,0)"><svg width="154.5" viewBox="2.95 -37.1 53.599999999999994 37.4" height="107.80410447761194" data-palette-color="#7fdbff"><path d="M15.9 0.3L15.9 0.3Q12.6 0.3 10.15-0.45 7.7-1.2 6.1-3.18 4.5-5.15 3.73-8.85 2.95-12.55 2.95-18.5L2.95-18.5Q2.95-24.1 3.75-27.73 4.55-31.35 6.18-33.4 7.8-35.45 10.3-36.27 12.8-37.1 16.2-37.1L16.2-37.1Q17.75-37.1 19.65-36.9 21.55-36.7 23.4-36.43 25.25-36.15 26.75-35.75L26.75-35.75 26.75-32.8Q25.9-32.95 24.35-33.1 22.8-33.25 20.83-33.38 18.85-33.5 16.8-33.5L16.8-33.5Q14.15-33.5 12.25-32.9 10.35-32.3 9.18-30.68 8-29.05 7.45-26.1 6.9-23.15 6.9-18.45L6.9-18.45Q6.9-13.7 7.43-10.68 7.95-7.65 9.1-6.05 10.25-4.45 12.1-3.85 13.95-3.25 16.7-3.25L16.7-3.25Q20.45-3.25 22.85-3.45 25.25-3.65 26.75-3.9L26.75-3.9 26.75-0.9Q25.25-0.55 23.43-0.28 21.6 0 19.68 0.15 17.75 0.3 15.9 0.3ZM45.2 0L41.2 0 41.2-33.2 29.85-33.2 29.85-36.8 56.55-36.8 56.55-33.2 45.2-33.2 45.2 0Z" opacity="1" transform="matrix(1,0,0,1,0,0)" fill="#7fdbff" class="undefined-text-0" data-fill-palette-color="primary" id="text-0"></path></svg></g></svg></g></svg></g></svg></g></svg></g><defs></defs></svg><rect width="154.5" height="107.80410447761194" fill="none" stroke="none" visibility="hidden"></rect></g></svg></g></svg>