<svg xmlns="http://www.w3.org/2000/svg" version="1.1" xmlns:xlink="http://www.w3.org/1999/xlink" xmlns:svgjs="http://svgjs.dev/svgjs" width="1000" height="290" viewBox="0 0 1000 290"><g transform="matrix(1,0,0,1,-0.6060606060606233,0.16261233214109438)"><svg viewBox="0 0 396 115" data-background-color="#2f2e2e" preserveAspectRatio="xMidYMid meet" height="290" width="1000" xmlns="http://www.w3.org/2000/svg" xmlns:xlink="http://www.w3.org/1999/xlink"><g id="tight-bounds" transform="matrix(1,0,0,1,0.2400000000000091,-0.06448420067664529)"><svg viewBox="0 0 395.52 115.12896840135329" height="115.12896840135329" width="395.52"><g><svg viewBox="0 0 395.52 115.12896840135329" height="115.12896840135329" width="395.52"><g><svg viewBox="0 0 395.52 115.12896840135329" height="115.12896840135329" width="395.52"><g id="textblocktransform"><svg viewBox="0 0 395.52 115.12896840135329" height="115.12896840135329" width="395.52" id="textblock"><g><rect width="395.52" height="89.18909888835185" fill="none" stroke-width="9.018103199999999" stroke="#067adf" data-fill-palette-color="none" data-stroke-palette-color="tertiary"></rect><rect width="395.52" height="25.939869513001447" y="89.18909888835185" fill="#067adf" data-fill-palette-color="tertiary"></rect></g><g><svg viewBox="0 0 395.52 89.18909888835185" height="89.18909888835185" width="395.52"><g transform="matrix(1,0,0,1,23.607599999999998,23.607599999999998)"><svg width="348.3048" viewBox="2.950000047683716 -37.099998474121094 310.3199768066406 37.39999771118164" height="41.973898888351854" data-palette-color="#7fdbff"><path d="M15.9 0.3L15.9 0.3Q12.6 0.3 10.15-0.45 7.7-1.2 6.1-3.18 4.5-5.15 3.73-8.85 2.95-12.55 2.95-18.5L2.95-18.5Q2.95-24.1 3.75-27.73 4.55-31.35 6.18-33.4 7.8-35.45 10.3-36.27 12.8-37.1 16.2-37.1L16.2-37.1Q17.75-37.1 19.65-36.9 21.55-36.7 23.4-36.43 25.25-36.15 26.75-35.75L26.75-35.75 26.75-32.8Q25.9-32.95 24.35-33.1 22.8-33.25 20.83-33.38 18.85-33.5 16.8-33.5L16.8-33.5Q14.15-33.5 12.25-32.9 10.35-32.3 9.18-30.68 8-29.05 7.45-26.1 6.9-23.15 6.9-18.45L6.9-18.45Q6.9-13.7 7.43-10.68 7.95-7.65 9.1-6.05 10.25-4.45 12.1-3.85 13.95-3.25 16.7-3.25L16.7-3.25Q20.45-3.25 22.85-3.45 25.25-3.65 26.75-3.9L26.75-3.9 26.75-0.9Q25.25-0.55 23.43-0.28 21.6 0 19.68 0.15 17.75 0.3 15.9 0.3ZM36.9 0L32.9 0 32.9-36.8 36.9-36.8 36.9-19.75 55.3-19.75 55.3-36.8 59.25-36.8 59.25 0 55.3 0 55.3-16.15 36.9-16.15 36.9 0ZM71 0L67 0 67-36.8 81.5-36.8Q83.3-36.8 85-36.38 86.7-35.95 88.07-34.8 89.45-33.65 90.25-31.53 91.05-29.4 91.05-25.95L91.05-25.95Q91.05-22.95 90.4-21.03 89.75-19.1 88.7-17.98 87.65-16.85 86.42-16.32 85.2-15.8 84.05-15.6L84.05-15.6 91.59 0 87.55 0 80.4-15.05Q79.59-15.05 78.4-15.1 77.2-15.15 75.84-15.15 74.5-15.15 73.22-15.2 71.95-15.25 71-15.25L71-15.25 71 0ZM71-33.2L71-18.3 80.9-18.3Q82.2-18.3 83.3-18.6 84.4-18.9 85.25-19.73 86.09-20.55 86.59-22.05 87.09-23.55 87.09-25.95L87.09-25.95Q87.09-28.25 86.59-29.68 86.09-31.1 85.22-31.88 84.34-32.65 83.25-32.93 82.15-33.2 80.9-33.2L80.9-33.2 71-33.2ZM101.39 0L97.39 0 97.39-36.8 101.39-36.8 101.39 0ZM119.54 0.3L119.54 0.3Q118.44 0.3 116.92 0.23 115.39 0.15 113.79 0.03 112.19-0.1 110.77-0.25 109.34-0.4 108.39-0.6L108.39-0.6 108.39-3.65Q109.64-3.55 111.44-3.45 113.24-3.35 115.32-3.3 117.39-3.25 119.39-3.25L119.39-3.25Q121.64-3.25 123.44-3.7 125.24-4.15 126.32-5.35 127.39-6.55 127.39-8.8L127.39-8.8 127.39-11.3Q127.39-13.85 126.09-15.18 124.79-16.5 121.89-16.5L121.89-16.5 117.94-16.5Q113.39-16.5 110.82-18.5 108.24-20.5 108.24-25.4L108.24-25.4 108.24-27.5Q108.24-32.7 111.04-34.9 113.84-37.1 118.94-37.1L118.94-37.1Q120.54-37.1 122.54-36.93 124.54-36.75 126.42-36.52 128.29-36.3 129.54-36.05L129.54-36.05 129.54-33Q127.34-33.2 124.57-33.35 121.79-33.5 119.34-33.5L119.34-33.5Q117.09-33.5 115.44-32.98 113.79-32.45 112.92-31.13 112.04-29.8 112.04-27.35L112.04-27.35 112.04-25.65Q112.04-22.6 113.64-21.45 115.24-20.3 118.09-20.3L118.09-20.3 122.34-20.3Q125.39-20.3 127.34-19.2 129.29-18.1 130.24-16.18 131.19-14.25 131.19-11.75L131.19-11.75 131.19-8.9Q131.19-5.2 129.62-3.2 128.04-1.2 125.42-0.45 122.79 0.3 119.54 0.3ZM150.29 0L146.29 0 146.29-33.2 134.94-33.2 134.94-36.8 161.64-36.8 161.64-33.2 150.29-33.2 150.29 0ZM170.29 0L166.29 0 166.29-36.8 170.29-36.8 170.29 0ZM179.93 0L175.83 0 188.43-36.8 193.53-36.8 206.13 0 202.03 0 198.33-10.5 183.53-10.5 179.93 0ZM190.98-33.3L184.53-14.1 197.33-14.1 190.98-33.3ZM216.33 0L212.38 0 212.38-36.8 215.63-36.8 234.83-6.85 234.83-36.8 238.78-36.8 238.78 0 235.53 0 216.33-29.95 216.33 0ZM271.63 0L267.63 0 267.63-33.2 256.28-33.2 256.28-36.8 282.98-36.8 282.98-33.2 271.63-33.2 271.63 0ZM287.07 0L282.97 0 295.57-36.8 300.67-36.8 313.27 0 309.17 0 305.47-10.5 290.67-10.5 287.07 0ZM298.12-33.3L291.67-14.1 304.47-14.1 298.12-33.3Z" opacity="1" transform="matrix(1,0,0,1,0,0)" fill="#7fdbff" class="undefined-text-0" data-fill-palette-color="primary" id="text-0"></path></svg></g></svg></g></svg></g></svg></g></svg></g><defs></defs></svg><rect width="395.52" height="115.12896840135329" fill="none" stroke="none" visibility="hidden"></rect></g></svg></g></svg>